PathFileType	4	(X/Y/Z)	/Users/itak/Documents/Research/Walk-IL/dataset/trc/00506_00183.trc
DataRate	CameraRate	NumFrames	NumMarkers	Units	OrigDataRate	OrigDataStartFrame	OrigNumFrames
100.000000	100.000000	4	53	mm	100.000000	52	421
Frame#	Time	RPSI			LPSI			L3			STRN			T10			C7			CLAV			RBAK			LBAK			LSHO			LUPA			LAEL			LAOL			LWTS			LWPS			LFRA			LIFD			LHPS			LHTS			RSHO			RUPA			RAEL			RAOL			RWTS			RWPS			RFRA			RIFD			RHTS			RHPS			RBHD			LFHD			RFHD			LBHD			LHIP			RHIP			RASI			LASI			LKNE			LTHI			LANK			LTIP			LTOE			LMT1			LMT5			LHEE			RKNE			RTHI			RANK			RTIP			RTOE			RMT1			RMT5			RHEE			
		X1	Y1	Z1	X2	Y2	Z2	X3	Y3	Z3	X4	Y4	Z4	X5	Y5	Z5	X6	Y6	Z6	X7	Y7	Z7	X8	Y8	Z8	X9	Y9	Z9	X10	Y10	Z10	X11	Y11	Z11	X12	Y12	Z12	X13	Y13	Z13	X14	Y14	Z14	X15	Y15	Z15	X16	Y16	Z16	X17	Y17	Z17	X18	Y18	Z18	X19	Y19	Z19	X20	Y20	Z20	X21	Y21	Z21	X22	Y22	Z22	X23	Y23	Z23	X24	Y24	Z24	X25	Y25	Z25	X26	Y26	Z26	X27	Y27	Z27	X28	Y28	Z28	X29	Y29	Z29	X30	Y30	Z30	X31	Y31	Z31	X32	Y32	Z32	X33	Y33	Z33	X34	Y34	Z34	X35	Y35	Z35	X36	Y36	Z36	X37	Y37	Z37	X38	Y38	Z38	X39	Y39	Z39	X40	Y40	Z40	X41	Y41	Z41	X42	Y42	Z42	X43	Y43	Z43	X44	Y44	Z44	X45	Y45	Z45	X46	Y46	Z46	X47	Y47	Z47	X48	Y48	Z48	X49	Y49	Z49	X50	Y50	Z50	X51	Y51	Z51	X52	Y52	Z52	X53	Y53	Z53	

53	0.52	-1145.942016601562	971.7831420898438	-476.5723266601562	-1079.783813476562	971.5748901367188	-581.6063232421875	-1123.528930664062	1033.200561523438	-539.6644897460938	-931.1209106445312	1204.685668945312	-437.4482727050781	-1141.69921875	1138.96044921875	-545.591796875	-1105.71484375	1370.176391601562	-522.2166748046875	-966.0191650390625	1298.529174804688	-454.9154663085938	-1183.880737304688	1246.286254882812	-466.8912353515625	-1089.047241210938	1316.278686523438	-609.9095458984375	-973.2150268554688	1366.142333984375	-635.5969848632812	-956.4296875	1239.564331054688	-695.0340576171875	-933.55810546875	1029.276245117188	-710.156005859375	-1029.477172851562	1019.506286621094	-679.3617553710938	-863.812744140625	844.2791137695312	-634.1304931640625	-917.357666015625	806.3714599609375	-702.3370971679688	-916.1981201171875	944.7191772460938	-702.5471801757812	-862.5203857421875	687.3424682617188	-620.105712890625	-894.740478515625	752.45166015625	-686.7584228515625	-846.19970703125	765.6513671875	-646.6964111328125	-1123.78271484375	1365.201416015625	-365.5274963378906	-1163.117919921875	1296.913940429688	-322.1128540039062	-1166.730102539062	1027.804321289062	-281.6150512695312	-1197.59033203125	1009.975402832031	-337.8951110839844	-1046.580200195312	833.8366088867188	-269.207763671875	-1132.5517578125	805.8905639648438	-256.0705261230469	-1162.122680664062	973.6553955078125	-272.7230529785156	-1038.420043945312	672.9266357421875	-267.9413757324219	-1038.0791015625	739.4619140625	-241.22900390625	-1107.81689453125	733.758544921875	-248.2888336181641	-1122.314208984375	1518.333374023438	-439.6099548339844	-953.0426025390625	1601.308715820312	-508.5475463867188	-1016.574951171875	1596.529541015625	-397.9637451171875	-1055.189575195312	1517.54833984375	-584.0762329101562	-919.6514282226562	896.1373901367188	-634.9105224609375	-1122.977905273438	868.8638916015625	-319.2501831054688	-1003.184143066406	914.5825805664062	-319.2883605957031	-878.6132202148438	929.0986938476562	-527.033203125	-936.170166015625	474.1756591796875	-597.1925659179688	-910.8784790039062	631.3590087890625	-610.3492431640625	-1032.322631835938	50.41288375854492	-646.9281616210938	-964.9390258789062	325.2247924804688	-619.3280029296875	-895.6007690429688	38.53117370605469	-491.7856750488281	-979.8419189453125	41.67364501953125	-506.4511108398438	-933.6163940429688	47.41928100585938	-596.7549438476562	-1105.528076171875	44.02663803100586	-620.744384765625	-1105.1748046875	482.0723266601562	-344.5201110839844	-1107.410766601562	741.3696899414062	-302.60498046875	-1164.558471679688	50.37845993041992	-406.3453369140625	-1099.694091796875	336.8148803710938	-360.3546142578125	-967.8367309570312	43.31647109985352	-347.4441223144531	-1008.117065429688	47.74913024902344	-413.3089294433594	-1071.934448242188	48.75969696044922	-339.2575378417969	-1188.189453125	38.90596389770508	-473.2471008300781	
54	0.53	-1145.6025390625	971.7670288085938	-476.4959411621094	-1079.383666992188	971.5953979492188	-581.5355834960938	-1123.184448242188	1033.180297851562	-539.59619140625	-930.7977294921875	1204.587768554688	-437.3162536621094	-1141.324340820312	1138.940673828125	-545.5913696289062	-1105.328979492188	1370.142944335938	-522.0916137695312	-965.6553955078125	1298.464721679688	-454.7943420410156	-1183.5048828125	1246.2783203125	-466.9188537597656	-1088.579345703125	1316.264404296875	-609.8480224609375	-972.7100219726562	1366.099609375	-635.4739990234375	-955.9315185546875	1239.484741210938	-694.9375610351562	-933.0701293945312	1029.209838867188	-710.0708618164062	-1029.017456054688	1019.4775390625	-679.31591796875	-863.4158935546875	844.1898193359375	-633.9402465820312	-917.0374755859375	806.3194580078125	-702.2650146484375	-915.7440795898438	944.64208984375	-702.4442749023438	-862.2402954101562	687.27001953125	-619.9971923828125	-894.2691650390625	752.3728637695312	-686.61083984375	-845.6962890625	765.69580078125	-646.5240478515625	-1123.411987304688	1365.17236328125	-365.5013122558594	-1162.774658203125	1296.889892578125	-322.1274108886719	-1166.4775390625	1027.768310546875	-281.5972595214844	-1197.3046875	1009.943786621094	-337.9373474121094	-1046.36572265625	833.8170166015625	-269.1128845214844	-1132.365478515625	805.8785400390625	-256.0119018554688	-1161.883422851562	973.643798828125	-272.6940002441406	-1038.234741210938	672.8788452148438	-267.8599853515625	-1037.906616210938	739.4337158203125	-241.1575164794922	-1107.625732421875	733.7364501953125	-248.2742309570312	-1121.8212890625	1518.336303710938	-439.5746765136719	-952.4515991210938	1601.228149414062	-508.4120178222656	-1016.059265136719	1596.465698242188	-397.8818359375	-1054.614501953125	1517.539916992188	-584.0108032226562	-919.220458984375	896.10009765625	-634.825927734375	-1123.001708984375	869.0333862304688	-319.2959594726562	-1002.91064453125	914.5059204101562	-319.1942138671875	-878.2562866210938	929.0664672851562	-526.9359741210938	-936.0773315429688	474.1600036621094	-597.2133178710938	-910.6124877929688	631.3133544921875	-610.2914428710938	-1032.325805664062	50.41743087768555	-646.9191284179688	-964.8029174804688	325.2235107421875	-619.3023681640625	-895.5975952148438	38.52881240844727	-491.7817687988281	-979.8375244140625	41.67324447631836	-506.4515686035156	-933.6102905273438	47.41750717163086	-596.7489013671875	-1105.530517578125	44.02668762207031	-620.7515869140625	-1104.85595703125	482.0174865722656	-344.4873657226562	-1107.121459960938	741.300537109375	-302.6427001953125	-1164.504760742188	50.40132904052734	-406.4059448242188	-1099.411010742188	336.7520141601562	-360.3525695800781	-967.8250732421875	43.3053092956543	-347.4233703613281	-1008.084411621094	47.69374847412109	-413.3324890136719	-1071.883178710938	48.77294158935547	-339.3092651367188	-1188.178344726562	38.90785217285156	-473.2725524902344	
55	0.54	-1145.25146484375	971.7578735351562	-476.4230041503906	-1078.93994140625	971.59619140625	-581.4369506835938	-1122.839721679688	1033.157836914062	-539.5296020507812	-930.4641723632812	1204.489990234375	-437.1766967773438	-1140.953735351562	1138.917602539062	-545.5809326171875	-1104.940551757812	1370.111572265625	-521.9478149414062	-965.2816162109375	1298.398315429688	-454.6637878417969	-1183.111450195312	1246.268676757812	-466.9565734863281	-1088.099609375	1316.255737304688	-609.7774047851562	-972.2052001953125	1366.052734375	-635.3472900390625	-955.4271850585938	1239.406616210938	-694.8535766601562	-932.5676879882812	1029.146240234375	-709.9912719726562	-1028.562133789062	1019.464721679688	-679.2638549804688	-863.0358276367188	844.0991821289062	-633.7669677734375	-916.7000122070312	806.2616577148438	-702.1973876953125	-915.2861938476562	944.5663452148438	-702.339111328125	-861.920654296875	687.1981201171875	-619.8942260742188	-893.8095092773438	752.2973022460938	-686.4794921875	-845.200439453125	765.7317504882812	-646.3463134765625	-1123.02880859375	1365.145629882812	-365.4651794433594	-1162.421997070312	1296.863037109375	-322.1309509277344	-1166.223876953125	1027.731567382812	-281.5675964355469	-1197.02685546875	1009.912658691406	-337.9556274414062	-1046.152709960938	833.7924194335938	-269.0079650878906	-1132.183959960938	805.8633422851562	-255.9469604492188	-1161.645751953125	973.635986328125	-272.6547546386719	-1038.05908203125	672.8232421875	-267.7647094726562	-1037.740844726562	739.3995971679688	-241.0734252929688	-1107.43994140625	733.7132568359375	-248.2451477050781	-1121.309692382812	1518.345092773438	-439.5341796875	-951.8410034179688	1601.147094726562	-508.2672729492188	-1015.531982421875	1596.399291992188	-397.7970581054688	-1054.028442382812	1517.534057617188	-583.9452514648438	-918.765625	896.068115234375	-634.7391967773438	-1123.04296875	869.2348022460938	-319.354736328125	-1002.627197265625	914.42919921875	-319.0989379882812	-877.8889770507812	929.0319213867188	-526.8435668945312	-935.9803466796875	474.1468200683594	-597.2288208007812	-910.3366088867188	631.26708984375	-610.2303466796875	-1032.328369140625	50.42456817626953	-646.91015625	-964.67138671875	325.2194519042969	-619.2830200195312	-895.5958251953125	38.52630233764648	-491.779052734375	-979.8342895507812	41.67288208007812	-506.4517822265625	-933.6038208007812	47.41652297973633	-596.7413330078125	-1105.53466796875	44.02404403686523	-620.7616577148438	-1104.532104492188	481.9602966308594	-344.4607849121094	-1106.819091796875	741.2301025390625	-302.6901245117188	-1164.45458984375	50.42477416992188	-406.4643249511719	-1099.125122070312	336.6846618652344	-360.3575439453125	-967.8153076171875	43.29719924926758	-347.4016418457031	-1008.054382324219	47.64197540283203	-413.3548889160156	-1071.835327148438	48.78556442260742	-339.3592529296875	-1188.170166015625	38.91053009033203	-473.2929077148438	
56	0.55	-1144.889038085938	971.75537109375	-476.3558349609375	-1078.461791992188	971.5797729492188	-581.3157958984375	-1122.491577148438	1033.13427734375	-539.4681396484375	-930.1193237304688	1204.392578125	-437.0328063964844	-1140.585571289062	1138.891845703125	-545.558837890625	-1104.538818359375	1370.08349609375	-521.7996826171875	-964.8958129882812	1298.328247070312	-454.5258483886719	-1182.69921875	1246.258666992188	-467.0010986328125	-1087.609741210938	1316.2529296875	-609.6969604492188	-971.6998291015625	1366.00048828125	-635.22021484375	-954.9149169921875	1239.331787109375	-694.7807006835938	-932.0549926757812	1029.08544921875	-709.9149169921875	-1028.109375	1019.464111328125	-679.2063598632812	-862.6695556640625	844.0072021484375	-633.6148681640625	-916.340087890625	806.1978149414062	-702.1292114257812	-914.8271484375	944.4937133789062	-702.2320556640625	-861.5480346679688	687.1282958984375	-619.7880859375	-893.3641357421875	752.2249145507812	-686.3676147460938	-844.7255249023438	765.7504272460938	-646.1671142578125	-1122.630981445312	1365.121337890625	-365.4192810058594	-1162.05908203125	1296.833740234375	-322.1205749511719	-1165.966674804688	1027.694702148438	-281.5253601074219	-1196.754638671875	1009.8837890625	-337.9479064941406	-1045.939086914062	833.7615966796875	-268.8961486816406	-1132.003662109375	805.8450317382812	-255.87646484375	-1161.406494140625	973.6309814453125	-272.6055603027344	-1037.890625	672.759765625	-267.6558227539062	-1037.578247070312	739.3604125976562	-240.9784240722656	-1107.257934570312	733.68896484375	-248.2001037597656	-1120.77685546875	1518.359008789062	-439.4889526367188	-951.2132568359375	1601.066650390625	-508.1132507324219	-1014.992492675781	1596.330932617188	-397.7052612304688	-1053.433837890625	1517.529418945312	-583.8768310546875	-918.2901611328125	896.0430908203125	-634.6492309570312	-1123.085083007812	869.4515991210938	-319.4200439453125	-1002.333923339844	914.3522338867188	-319.0050354003906	-877.5108642578125	928.9959106445312	-526.7553100585938	-935.8762817382812	474.1345825195312	-597.238037109375	-910.0545654296875	631.2211303710938	-610.1681518554688	-1032.329956054688	50.43450164794922	-646.9020385742188	-964.5415649414062	325.2135925292969	-619.2683715820312	-895.5957641601562	38.52424240112305	-491.7783813476562	-979.8321533203125	41.67250823974609	-506.4515380859375	-933.5974731445312	47.41653823852539	-596.7320556640625	-1105.540771484375	44.01841735839844	-620.7750244140625	-1104.20166015625	481.9006042480469	-344.4403076171875	-1106.5087890625	741.158935546875	-302.7396850585938	-1164.408325195312	50.44870376586914	-406.5210266113281	-1098.833984375	336.6122131347656	-360.3713073730469	-967.8062133789062	43.29212951660156	-347.3805236816406	-1008.02685546875	47.59453201293945	-413.3757629394531	-1071.791015625	48.79780578613281	-339.4064636230469	-1188.164306640625	38.91335296630859	-473.3093566894531	
